<svg width="21" height="21" viewBox="0 0 21 21" fill="none" xmlns="http://www.w3.org/2000/svg">
<path fill-rule="evenodd" clip-rule="evenodd" d="M13.6501 2.1C13.0892 2.1 12.5793 2.3194 12.2017 2.67928C13.0991 3.62124 13.65 4.89628 13.65 6.3H13.6501C14.8099 6.3 15.7501 5.3598 15.7501 4.2C15.7501 3.0402 14.8099 2.1 13.6501 2.1ZM13.6501 0C12.3723 0 11.2283 0.571313 10.4591 1.46918C9.82684 1.19934 9.13086 1.05 8.4 1.05C5.5005 1.05 3.15 3.40051 3.15 6.3C3.15 7.85433 3.82547 9.2509 4.89887 10.2122C2.00773 11.5396 0 14.4603 0 17.85C0 18.4299 0.470101 18.9 1.05 18.9C1.6299 18.9 2.1 18.4299 2.1 17.85C2.1 14.3706 4.92061 11.55 8.4 11.55C9.94304 11.55 11.3541 12.1034 12.4496 13.0237C12.8936 13.3967 13.5559 13.3392 13.9289 12.8952C14.302 12.4512 14.2444 11.7888 13.8004 11.4158C13.2276 10.9346 12.5893 10.5284 11.9009 10.2124C12.4525 9.71846 12.899 9.10962 13.2028 8.42349C13.3496 8.40798 13.4989 8.4 13.6504 8.4C14.8256 8.4 15.8864 8.88123 16.6499 9.66005C17.0558 10.0742 17.7206 10.0808 18.1347 9.6748C18.5488 9.26885 18.5555 8.60406 18.1495 8.18995C17.7244 7.75632 17.2366 7.38368 16.7009 7.0867C17.4132 6.3341 17.8501 5.31807 17.8501 4.2C17.8501 1.8804 15.9697 0 13.6501 0ZM8.4 9.45C10.1397 9.45 11.55 8.0397 11.55 6.3C11.55 4.5603 10.1397 3.15 8.4 3.15C6.6603 3.15 5.25 4.5603 5.25 6.3C5.25 8.0397 6.6603 9.45 8.4 9.45ZM18.9 11.55C18.9 10.9701 18.4299 10.5 17.85 10.5C17.2701 10.5 16.8 10.9701 16.8 11.55V12.6H15.75C15.1701 12.6 14.7 13.0701 14.7 13.65C14.7 14.2299 15.1701 14.7 15.75 14.7H16.8V15.75C16.8 16.3299 17.2701 16.8 17.85 16.8C18.4299 16.8 18.9 16.3299 18.9 15.75V14.7H19.95C20.5299 14.7 21 14.2299 21 13.65C21 13.0701 20.5299 12.6 19.95 12.6H18.9V11.55Z" fill="#2F54EB"/>
</svg>
