<svg width="18" height="18" viewBox="0 0 18 18" fill="none" xmlns="http://www.w3.org/2000/svg">
<g clip-path="url(#clip0_4851_313352)">
<path fill-rule="evenodd" clip-rule="evenodd" d="M7.65256 1.56346C7.96396 1.69244 8.16699 1.99631 8.16699 2.33336V4.83336C13.2296 4.83336 17.3337 8.93742 17.3337 14V14.8334C17.3337 15.1873 17.1101 15.5026 16.7762 15.6197C16.4422 15.7369 16.0707 15.6303 15.8496 15.3539L15.5187 14.9403C13.7791 12.7658 11.1454 11.5 8.36074 11.5H8.16699V14C8.16699 14.3371 7.96396 14.6409 7.65256 14.7699C7.34117 14.8989 6.98274 14.8276 6.7444 14.5893L0.91107 8.75595C0.585633 8.43051 0.585633 7.90287 0.91107 7.57744L6.7444 1.7441C6.98274 1.50577 7.34117 1.43447 7.65256 1.56346ZM2.67884 8.16669L6.50033 11.9882V10.6667C6.50033 10.2065 6.87342 9.83336 7.33366 9.83336H8.36074C11.0197 9.83336 13.5623 10.8099 15.5251 12.5404C14.8459 9.09697 11.8097 6.50002 8.16699 6.50002H7.33366C6.87342 6.50002 6.50033 6.12693 6.50033 5.66669V4.3452L2.67884 8.16669Z" fill="#2F54EB"/>
</g>
<defs>
<clipPath id="clip0_4851_313352">
<rect width="16.6667" height="16.6667" fill="white" transform="translate(0.666992 0.664062)"/>
</clipPath>
</defs>
</svg>
