<svg width="18" height="15" viewBox="0 0 18 15" fill="none" xmlns="http://www.w3.org/2000/svg">
  <path fill-rule="evenodd" clip-rule="evenodd" d="M7.65289 0.563458C7.34149 0.434474 6.98306 0.50577 6.74473 0.744102L0.911394 6.57744C0.585957 6.90287 0.585957 7.43051 0.911394 7.75595L6.74473 13.5893C6.98306 13.8276 7.34149 13.8989 7.65289 13.7699C7.96428 13.6409 8.16732 13.3371 8.16732 13V10.5H8.36107C11.1458 10.5 13.7795 11.7658 15.519 13.9403L15.8499 14.3539C16.071 14.6303 16.4425 14.7369 16.7765 14.6197C17.1104 14.5026 17.334 14.1873 17.334 13.8334V13C17.334 7.93742 13.2299 3.83336 8.16732 3.83336V1.33336C8.16732 0.996306 7.96428 0.692442 7.65289 0.563458ZM6.50065 3.3452V4.66669C6.50065 5.12693 6.87375 5.50002 7.33398 5.50002H8.16732C11.81 5.50002 14.8462 8.09697 15.5254 11.5404C13.5626 9.80994 11.0201 8.83336 8.36107 8.83336H7.33398C6.87375 8.83336 6.50065 9.20645 6.50065 9.66669V10.9882L2.67916 7.16669L6.50065 3.3452Z" fill="currentColor"></path>
</svg>
