<svg width="18" height="18" viewBox="0 0 18 18" fill="none" xmlns="http://www.w3.org/2000/svg">
<path fill-rule="evenodd" clip-rule="evenodd" d="M7.74935 9.83268C6.6998 9.83268 5.66602 10.844 5.66602 12.3327C5.66602 12.7929 5.29292 13.166 4.83268 13.166C4.37245 13.166 3.99935 12.7929 3.99935 12.3327C3.99935 10.9049 4.6681 9.57019 5.73418 8.81252C5.42941 8.3982 5.24935 7.88647 5.24935 7.33268C5.24935 5.95197 6.36864 4.83268 7.74935 4.83268C9.13006 4.83268 10.2493 5.95197 10.2493 7.33268C10.2493 7.88647 10.0693 8.3982 9.76452 8.81252C10.8306 9.57019 11.4993 10.9049 11.4993 12.3327C11.4993 12.7929 11.1263 13.166 10.666 13.166C10.2058 13.166 9.83268 12.7929 9.83268 12.3327C9.83268 10.844 8.7989 9.83268 7.74935 9.83268ZM7.74935 8.16602C8.20959 8.16602 8.58268 7.79292 8.58268 7.33268C8.58268 6.87245 8.20959 6.49935 7.74935 6.49935C7.28911 6.49935 6.91602 6.87245 6.91602 7.33268C6.91602 7.79292 7.28911 8.16602 7.74935 8.16602Z" fill="currentColor"/>
<path fill-rule="evenodd" clip-rule="evenodd" d="M11.4993 17.3327C13.3403 17.3327 14.8327 15.8403 14.8327 13.9993L14.8327 3.99935C14.8327 2.1584 13.3403 0.666016 11.4994 0.666016H2.33268C1.41221 0.666016 0.666016 1.41221 0.666016 2.33268V15.666C0.666016 16.5865 1.41221 17.3327 2.33268 17.3327L11.4993 17.3327ZM13.166 13.9993C13.166 14.9198 12.4198 15.666 11.4993 15.666L2.33268 15.666L2.33268 2.33268L11.4994 2.33268C12.4198 2.33268 13.166 3.07888 13.166 3.99935V13.9993Z" fill="currentColor"/>
<path d="M17.3327 4.83268C17.3327 4.37245 16.9596 3.99935 16.4993 3.99935C16.0391 3.99935 15.666 4.37245 15.666 4.83268V9.83268C15.666 10.2929 16.0391 10.666 16.4993 10.666C16.9596 10.666 17.3327 10.2929 17.3327 9.83268V4.83268Z" fill="currentColor"/>
</svg>
