<svg width="17" height="18" viewBox="0 0 17 18" fill="none" xmlns="http://www.w3.org/2000/svg">
<path fill-rule="evenodd" clip-rule="evenodd" d="M8.50033 2.33268C4.81843 2.33268 1.83366 5.31745 1.83366 8.99935C1.83366 12.6812 4.81843 15.666 8.50033 15.666C12.1822 15.666 15.167 12.6812 15.167 8.99935C15.167 5.31745 12.1822 2.33268 8.50033 2.33268ZM0.166992 8.99935C0.166992 4.39698 3.89795 0.666016 8.50033 0.666016C13.1027 0.666016 16.8337 4.39698 16.8337 8.99935C16.8337 13.6017 13.1027 17.3327 8.50033 17.3327C3.89795 17.3327 0.166992 13.6017 0.166992 8.99935Z" fill="#434343"/>
<path fill-rule="evenodd" clip-rule="evenodd" d="M8.50033 3.99935C8.96056 3.99935 9.33366 4.37245 9.33366 4.83268V8.48432L12.2063 9.92066C12.618 10.1265 12.7848 10.627 12.579 11.0387C12.3732 11.4503 11.8726 11.6172 11.461 11.4114L8.12765 9.74471C7.84533 9.60355 7.66699 9.31499 7.66699 8.99935V4.83268C7.66699 4.37245 8.04009 3.99935 8.50033 3.99935Z" fill="#434343"/>
</svg>
