<svg width="16" height="16" viewBox="0 0 18 18" fill="none" xmlns="http://www.w3.org/2000/svg">
<path fill-rule="evenodd" clip-rule="evenodd" d="M8.99935 0.666016C9.45959 0.666016 9.83268 1.03911 9.83268 1.49935L9.83268 11.1542L13.4101 7.57676C13.7355 7.25132 14.2632 7.25132 14.5886 7.57676C14.914 7.9022 14.914 8.42983 14.5886 8.75527L9.5886 13.7553C9.26317 14.0807 8.73553 14.0807 8.41009 13.7553L3.41009 8.75527C3.08466 8.42984 3.08466 7.9022 3.41009 7.57676C3.73553 7.25133 4.26317 7.25132 4.5886 7.57676L8.16602 11.1542L8.16602 1.49935C8.16602 1.03911 8.53911 0.666016 8.99935 0.666016ZM1.49935 13.166C1.95959 13.166 2.33268 13.5391 2.33268 13.9993V15.666H15.666V13.9993C15.666 13.5391 16.0391 13.166 16.4993 13.166C16.9596 13.166 17.3327 13.5391 17.3327 13.9993V16.4993C17.3327 16.9596 16.9596 17.3327 16.4993 17.3327H1.49935C1.03911 17.3327 0.666016 16.9596 0.666016 16.4993V13.9993C0.666016 13.5391 1.03911 13.166 1.49935 13.166Z" fill="currentColor"/>
</svg>
