<svg width="16" height="16" viewBox="0 0 16 16" fill="none" xmlns="http://www.w3.org/2000/svg">
<path fill-rule="evenodd" clip-rule="evenodd" d="M6.33333 0.5C7.88653 0.5 9.19162 1.56231 9.56165 3L14.6667 3C15.1269 3 15.5 3.3731 15.5 3.83333C15.5 4.29357 15.1269 4.66667 14.6667 4.66667H9.56165C9.19162 6.10436 7.88653 7.16667 6.33333 7.16667C4.78013 7.16667 3.47505 6.10436 3.10502 4.66667H1.33333C0.873096 4.66667 0.5 4.29357 0.5 3.83333C0.5 3.3731 0.873096 3 1.33333 3H3.10502C3.47505 1.56231 4.78013 0.5 6.33333 0.5ZM4.66667 3.83333C4.66667 2.91286 5.41286 2.16667 6.33333 2.16667C7.25381 2.16667 8 2.91286 8 3.83333C8 4.75381 7.25381 5.5 6.33333 5.5C5.41286 5.5 4.66667 4.75381 4.66667 3.83333Z" fill="currentColor"/>
<path fill-rule="evenodd" clip-rule="evenodd" d="M12.895 11.3333C12.525 9.89565 11.2199 8.83333 9.66667 8.83333C8.11347 8.83333 6.80838 9.89565 6.43835 11.3333H1.33333C0.873096 11.3333 0.5 11.7064 0.5 12.1667C0.5 12.6269 0.873096 13 1.33333 13H6.43835C6.80838 14.4377 8.11347 15.5 9.66667 15.5C11.2199 15.5 12.525 14.4377 12.895 13H14.6667C15.1269 13 15.5 12.6269 15.5 12.1667C15.5 11.7064 15.1269 11.3333 14.6667 11.3333H12.895ZM11.3333 12.1667C11.3333 13.0871 10.5871 13.8333 9.66667 13.8333C8.74619 13.8333 8 13.0871 8 12.1667C8 11.2462 8.74619 10.5 9.66667 10.5C10.5871 10.5 11.3333 11.2462 11.3333 12.1667Z" fill="currentColor"/>
</svg>
