<svg width="20" height="20" viewBox="0 0 20 20" fill="none" xmlns="http://www.w3.org/2000/svg">
<g clip-path="url(#clip0_5268_430435)">
<path d="M9.16927 6.66406C9.16927 6.20383 9.54237 5.83073 10.0026 5.83073L12.5026 5.83073C12.9628 5.83073 13.3359 6.20382 13.3359 6.66406C13.3359 7.1243 12.9628 7.4974 12.5026 7.4974L10.0026 7.4974C9.54237 7.4974 9.16927 7.1243 9.16927 6.66406Z" fill="#434343"/>
<path d="M10.0026 9.16406C9.54237 9.16406 9.16927 9.53716 9.16927 9.9974C9.16927 10.4576 9.54237 10.8307 10.0026 10.8307H12.5026C12.9628 10.8307 13.3359 10.4576 13.3359 9.9974C13.3359 9.53716 12.9628 9.16406 12.5026 9.16406H10.0026Z" fill="#434343"/>
<path d="M9.16927 13.3307C9.16927 12.8705 9.54237 12.4974 10.0026 12.4974H12.5026C12.9628 12.4974 13.3359 12.8705 13.3359 13.3307C13.3359 13.791 12.9628 14.1641 12.5026 14.1641H10.0026C9.54237 14.1641 9.16927 13.791 9.16927 13.3307Z" fill="#434343"/>
<path d="M7.5026 7.4974C7.96284 7.4974 8.33594 7.1243 8.33594 6.66406C8.33594 6.20383 7.96284 5.83073 7.5026 5.83073C7.04237 5.83073 6.66927 6.20383 6.66927 6.66406C6.66927 7.1243 7.04237 7.4974 7.5026 7.4974Z" fill="#434343"/>
<path d="M8.33594 9.9974C8.33594 10.4576 7.96284 10.8307 7.5026 10.8307C7.04237 10.8307 6.66927 10.4576 6.66927 9.9974C6.66927 9.53716 7.04237 9.16406 7.5026 9.16406C7.96284 9.16406 8.33594 9.53716 8.33594 9.9974Z" fill="#434343"/>
<path d="M7.5026 14.1641C7.96284 14.1641 8.33594 13.791 8.33594 13.3307C8.33594 12.8705 7.96284 12.4974 7.5026 12.4974C7.04237 12.4974 6.66927 12.8705 6.66927 13.3307C6.66927 13.791 7.04237 14.1641 7.5026 14.1641Z" fill="#434343"/>
<path fill-rule="evenodd" clip-rule="evenodd" d="M3.33594 3.33073C3.33594 2.41026 4.08213 1.66406 5.0026 1.66406H15.0026C15.9231 1.66406 16.6693 2.41025 16.6693 3.33073V16.6641C16.6693 17.5845 15.9231 18.3307 15.0026 18.3307H5.0026C4.08213 18.3307 3.33594 17.5845 3.33594 16.6641V3.33073ZM15.0026 3.33073L5.0026 3.33073V16.6641H15.0026V3.33073Z" fill="#434343"/>
</g>
<defs>
<clipPath id="clip0_5268_430435">
<rect width="16.6667" height="16.6667" fill="white" transform="translate(1.66797 1.66406)"/>
</clipPath>
</defs>
</svg>
