<svg width="18" height="18" viewBox="0 0 18 18" fill="none" xmlns="http://www.w3.org/2000/svg">
<path fill-rule="evenodd" clip-rule="evenodd" d="M9.83333 9.10024L10.5656 11.8329C10.5665 11.8367 10.5675 11.8405 10.5685 11.8443C10.5695 11.8481 10.5706 11.8518 10.5716 11.8556L11.4313 15.0639C11.5504 15.5085 12.0074 15.7723 12.4519 15.6532L15.6717 14.7904C16.1162 14.6713 16.38 14.2144 16.2609 13.7698L13.2414 2.50067C13.1222 2.05612 12.6653 1.7923 12.2207 1.91141L9.62195 2.60776C9.46933 2.43675 9.24724 2.32908 9 2.32908H2.33333C1.8731 2.32908 1.5 2.70218 1.5 3.16242V14.8291C1.5 15.2893 1.8731 15.6624 2.33333 15.6624H9C9.46024 15.6624 9.83333 15.2893 9.83333 14.8291V9.10024ZM12.3942 12.2178L12.8255 13.8276L14.4354 13.3962L14.004 11.7865L12.3942 12.2178ZM13.5727 10.1766L11.8472 3.73697L10.2373 4.16834L11.9628 10.608L13.5727 10.1766ZM3.16667 12.3291V13.9958H4.83333V12.3291H3.16667ZM4.83333 10.6624H3.16667V3.99575H4.83333V10.6624ZM6.5 12.3291V13.9958H8.16667V12.3291H6.5ZM8.16667 10.6624H6.5V3.99575H8.16667V10.6624Z" fill="#434343"/>
</svg>
