<svg width="18" height="18" viewBox="0 0 18 18" fill="none" xmlns="http://www.w3.org/2000/svg">
<path fill-rule="evenodd" clip-rule="evenodd" d="M4.65084 1.5C3.88607 1.5 3.21943 2.02049 3.03394 2.76244L1.52961 8.77976C1.51911 8.81819 1.51128 8.85773 1.50636 8.89817C1.50133 8.93859 1.49933 8.97885 1.5002 9.01869V14.8333C1.5002 15.7538 2.24639 16.5 3.16686 16.5H14.8335C15.754 16.5 16.5002 15.7538 16.5002 14.8333V9.01869C16.5011 8.97885 16.4991 8.9386 16.494 8.89817C16.4891 8.85773 16.4813 8.81819 16.4708 8.77975L14.9665 2.76244C14.781 2.0205 14.1143 1.5 13.3496 1.5H4.65084ZM14.5996 8.16667L13.3496 3.16667L4.65084 3.16667L3.40084 8.16667H6.64245C6.99563 8.16667 7.31046 8.3893 7.42815 8.7223C7.65735 9.37075 8.27582 9.83333 9.0002 9.83333C9.72457 9.83333 10.343 9.37075 10.5722 8.7223C10.6899 8.3893 11.0048 8.16667 11.3579 8.16667H14.5996ZM3.16686 14.8333V9.83333H6.11305C6.689 10.829 7.76547 11.5 9.0002 11.5C10.2349 11.5 11.3114 10.829 11.8873 9.83333H14.8335V14.8333H3.16686Z" fill="#434343"/>
</svg>
