<svg width="18" height="18" viewBox="0 0 18 18" fill="none" xmlns="http://www.w3.org/2000/svg">
<path fill-rule="evenodd" clip-rule="evenodd" d="M8.15842 2.73791C8.15454 2.74322 8.15 2.74988 8.1449 2.75809C8.096 2.83688 8.04702 2.97621 8.02416 3.14921C7.92142 3.92682 7.47016 4.65332 6.73581 5.0773C6.00166 5.50116 5.14712 5.52882 4.42244 5.22924C4.26138 5.16266 4.1164 5.13544 4.02368 5.13838C4.01372 5.1387 4.00547 5.13933 3.9988 5.14006C3.6558 5.58371 3.37075 6.07388 3.15467 6.59922C3.15732 6.60519 3.16079 6.61238 3.16531 6.6208C3.20906 6.70234 3.30513 6.81417 3.44344 6.92026C4.06625 7.39799 4.47034 8.1525 4.47034 9.00105C4.47034 9.84959 4.06625 10.6041 3.44344 11.0818C3.30513 11.1879 3.20906 11.2998 3.16531 11.3813C3.16079 11.3897 3.15732 11.3969 3.15467 11.4029C3.37075 11.9282 3.6558 12.4184 3.9988 12.862C4.00547 12.8628 4.01372 12.8634 4.02368 12.8637C4.11639 12.8666 4.26138 12.8394 4.42244 12.7729C5.14712 12.4733 6.00165 12.5009 6.73581 12.9248C7.47016 13.3488 7.92143 14.0753 8.02416 14.8529C8.04702 15.0259 8.096 15.1652 8.1449 15.244C8.15 15.2522 8.15454 15.2589 8.15842 15.2642C8.43375 15.3008 8.71504 15.3198 9.00118 15.3198C9.28732 15.3198 9.56861 15.3008 9.84393 15.2642C9.84781 15.2589 9.85235 15.2522 9.85745 15.244C9.90635 15.1652 9.95533 15.0259 9.97819 14.8529C10.0809 14.0753 10.5322 13.3488 11.2665 12.9248C12.0007 12.5009 12.8552 12.4733 13.5799 12.7729C13.741 12.8394 13.886 12.8667 13.9787 12.8637C13.9886 12.8634 13.9969 12.8628 14.0036 12.862C14.3465 12.4184 14.6316 11.9282 14.8477 11.4029C14.845 11.397 14.8415 11.3898 14.837 11.3814C14.7933 11.2998 14.6972 11.188 14.5589 11.0819C13.936 10.6041 13.5319 9.84962 13.5319 9.00105C13.5319 8.15248 13.936 7.39795 14.5589 6.92022C14.6972 6.81413 14.7933 6.70229 14.837 6.62074C14.8415 6.61232 14.845 6.60513 14.8477 6.59916C14.6316 6.07384 14.3465 5.58369 14.0036 5.14006C13.9969 5.13933 13.9886 5.1387 13.9787 5.13838C13.886 5.13544 13.741 5.16266 13.5799 5.22924C12.8552 5.52882 12.0007 5.50116 11.2665 5.0773C10.5322 4.65332 10.0809 3.92682 9.97819 3.14921C9.95533 2.97621 9.90635 2.83688 9.85745 2.75809C9.85235 2.74988 9.84781 2.74322 9.84393 2.73791C9.5686 2.70126 9.28732 2.68229 9.00118 2.68229C8.71504 2.68229 8.43375 2.70126 8.15842 2.73791ZM7.88394 1.09327C8.24942 1.04205 8.62245 1.01562 9.00118 1.01562C9.37991 1.01562 9.75293 1.04205 10.1184 1.09327C10.6832 1.17242 11.0564 1.52937 11.2735 1.87917C11.4845 2.21916 11.5875 2.60573 11.6305 2.93091C11.6683 3.21722 11.833 3.47984 12.0999 3.63392C12.3667 3.78796 12.6764 3.7993 12.9432 3.689C13.2461 3.56379 13.6319 3.45989 14.0315 3.47255C14.4425 3.48558 14.9375 3.62975 15.2888 4.07781C15.7478 4.66331 16.1271 5.31495 16.4099 6.01636C16.623 6.54497 16.5002 7.0462 16.3056 7.40875C16.1166 7.76113 15.8333 8.0432 15.5732 8.24267C15.3439 8.41857 15.1986 8.69267 15.1986 9.00105C15.1986 9.30943 15.3439 9.58353 15.5732 9.75943C15.8333 9.9589 16.1166 10.241 16.3056 10.5933C16.5002 10.9559 16.623 11.4571 16.4099 11.9857C16.1271 12.6871 15.7478 13.3388 15.2888 13.9243C14.9375 14.3723 14.4425 14.5165 14.0315 14.5295C13.6319 14.5422 13.2461 14.4383 12.9432 14.3131C12.6764 14.2028 12.3667 14.2141 12.0999 14.3682C11.833 14.5222 11.6683 14.7849 11.6305 15.0712C11.5875 15.3964 11.4846 15.7829 11.2735 16.1229C11.0564 16.4727 10.6832 16.8297 10.1184 16.9088C9.75293 16.96 9.37991 16.9865 9.00118 16.9865C8.62245 16.9865 8.24942 16.96 7.88394 16.9088C7.31911 16.8297 6.94593 16.4727 6.72882 16.1229C6.5178 15.7829 6.41481 15.3964 6.37185 15.0712C6.33403 14.7849 6.16935 14.5222 5.90247 14.3682C5.63567 14.2141 5.326 14.2028 5.05917 14.3131C4.75629 14.4383 4.37045 14.5422 3.97088 14.5295C3.55987 14.5165 3.06486 14.3723 2.71359 13.9243C2.25455 13.3388 1.87526 12.6871 1.59244 11.9857C1.37932 11.4571 1.50216 10.9559 1.69669 10.5933C1.88575 10.2409 2.16901 9.95888 2.42906 9.75941C2.65837 9.58351 2.80367 9.30942 2.80367 9.00105C2.80367 8.69268 2.65837 8.41858 2.42906 8.24268C2.16901 8.04321 1.88575 7.76115 1.69669 7.40878C1.50216 7.04623 1.37932 6.54503 1.59244 6.01644C1.87526 5.31499 2.25455 4.66334 2.7136 4.07781C3.06487 3.62976 3.55987 3.48558 3.97089 3.47255C4.37045 3.45989 4.75629 3.56379 5.05917 3.689C5.32599 3.7993 5.63567 3.78796 5.90247 3.63392C6.16935 3.47984 6.33403 3.21722 6.37185 2.93091C6.41482 2.60573 6.5178 2.21916 6.72882 1.87918C6.94593 1.52938 7.31911 1.17242 7.88394 1.09327ZM9.00118 8.04636C8.47392 8.04636 8.04649 8.47379 8.04649 9.00105C8.04649 9.52831 8.47392 9.95574 9.00118 9.95574C9.52844 9.95574 9.95587 9.52831 9.95587 9.00105C9.95587 8.47379 9.52844 8.04636 9.00118 8.04636ZM6.37982 9.00105C6.37982 7.55331 7.55344 6.37969 9.00118 6.37969C10.4489 6.37969 11.6225 7.55331 11.6225 9.00105C11.6225 10.4488 10.4489 11.6224 9.00118 11.6224C7.55344 11.6224 6.37982 10.4488 6.37982 9.00105Z" fill="#434343"/>
</svg>
