<svg width="18" height="18" viewBox="0 0 18 18" fill="none" xmlns="http://www.w3.org/2000/svg">
<g clip-path="url(#clip0_5268_430413)">
<path fill-rule="evenodd" clip-rule="evenodd" d="M2.33594 2.33073C2.33594 1.41026 3.08213 0.664062 4.0026 0.664062H11.2248C11.5854 0.664062 11.9363 0.781026 12.2248 0.997396L15.0026 3.08073C15.4223 3.39549 15.6693 3.88947 15.6693 4.41406V15.6641C15.6693 16.5845 14.9231 17.3307 14.0026 17.3307H4.0026C3.08213 17.3307 2.33594 16.5845 2.33594 15.6641V2.33073ZM9.83594 2.33073L4.0026 2.33073V15.6641H14.0026V6.4974H11.5026C10.5821 6.4974 9.83594 5.7512 9.83594 4.83073V2.33073ZM11.5026 2.53906V4.83073H14.0026V4.41406L11.5026 2.53906ZM9.0026 8.9974C8.54237 8.9974 8.16927 9.37049 8.16927 9.83073C8.16927 10.291 8.54237 10.6641 9.0026 10.6641C9.46284 10.6641 9.83594 10.291 9.83594 9.83073C9.83594 9.37049 9.46284 8.9974 9.0026 8.9974ZM11.0369 11.2842C11.3301 10.8746 11.5026 10.3728 11.5026 9.83073C11.5026 8.45002 10.3833 7.33073 9.0026 7.33073C7.62189 7.33073 6.5026 8.45002 6.5026 9.83073C6.5026 10.3728 6.67513 10.8746 6.96827 11.2842C6.54162 11.6029 6.25742 11.9994 6.06975 12.3747C5.8657 12.7828 5.76783 13.1808 5.71967 13.4698C5.69526 13.6162 5.68274 13.7401 5.67627 13.8306C5.67303 13.876 5.67128 13.9134 5.67034 13.9416C5.66987 13.9556 5.66961 13.9674 5.66946 13.9768L5.66931 13.989L5.66928 13.9937L5.66927 13.9956L5.66927 13.9966C5.66927 13.9966 5.66927 13.9974 6.5026 13.9974H5.66927C5.66927 14.4576 6.04237 14.8307 6.5026 14.8307C6.9609 14.8307 7.33279 14.4608 7.33592 14.0032L7.33609 13.9971C7.33637 13.9886 7.33706 13.9723 7.3387 13.9493C7.342 13.9031 7.34901 13.8317 7.36366 13.7438C7.39363 13.564 7.45201 13.337 7.56046 13.1201C7.66728 12.9064 7.81443 12.7181 8.01954 12.5814C8.21944 12.4481 8.52342 12.3307 9.0026 12.3307C9.48178 12.3307 9.78577 12.4481 9.98567 12.5814C10.1908 12.7181 10.3379 12.9064 10.4447 13.1201C10.5532 13.337 10.6116 13.564 10.6415 13.7438C10.6562 13.8317 10.6632 13.9031 10.6665 13.9493C10.6681 13.9723 10.6688 13.9886 10.6691 13.9971L10.6693 14.0032C10.6724 14.4608 11.0443 14.8307 11.5026 14.8307C11.9628 14.8307 12.3359 14.4576 12.3359 13.9974H11.5026C12.3359 13.9974 12.3359 13.9966 12.3359 13.9966L12.3359 13.9956L12.3359 13.9937L12.3359 13.989L12.3358 13.9768C12.3356 13.9674 12.3353 13.9556 12.3349 13.9416C12.3339 13.9134 12.3322 13.876 12.3289 13.8306C12.3225 13.7401 12.3099 13.6162 12.2855 13.4698C12.2374 13.1808 12.1395 12.7828 11.9355 12.3747C11.7478 11.9994 11.4636 11.6029 11.0369 11.2842Z" fill="#434343"/>
</g>
<defs>
<clipPath id="clip0_5268_430413">
<rect width="16.6667" height="16.6667" fill="white" transform="translate(0.667969 0.664062)"/>
</clipPath>
</defs>
</svg>
