<svg width="18" height="18" viewBox="0 0 18 18" fill="none" xmlns="http://www.w3.org/2000/svg">
<g clip-path="url(#clip0_5268_430421)">
<path fill-rule="evenodd" clip-rule="evenodd" d="M9.0013 0.664062C4.39893 0.664062 0.667969 4.39502 0.667969 8.9974C0.667969 13.5998 4.39893 17.3307 9.0013 17.3307C13.6037 17.3307 17.3346 13.5998 17.3346 8.9974C17.3346 4.39502 13.6037 0.664062 9.0013 0.664062ZM2.33464 8.9974C2.33464 5.3155 5.3194 2.33073 9.0013 2.33073C12.6832 2.33073 15.668 5.3155 15.668 8.9974C15.668 10.7722 14.9744 12.3851 13.8435 13.5797C13.4975 12.2367 12.6076 11.1122 11.4226 10.455C11.9879 9.85775 12.3346 9.0514 12.3346 8.16406C12.3346 6.32311 10.8423 4.83073 9.0013 4.83073C7.16035 4.83073 5.66797 6.32311 5.66797 8.16406C5.66797 9.0514 6.01468 9.85775 6.58003 10.455C5.39501 11.1122 4.50506 12.2367 4.15909 13.5797C3.0282 12.3851 2.33464 10.7722 2.33464 8.9974ZM5.66847 14.7725C6.64894 15.3395 7.78722 15.6641 9.0013 15.6641C10.2154 15.6641 11.3537 15.3395 12.3341 14.7725C12.303 12.9584 10.8228 11.4974 9.0013 11.4974C7.17981 11.4974 5.69956 12.9584 5.66847 14.7725ZM9.0013 6.4974C8.08083 6.4974 7.33464 7.24359 7.33464 8.16406C7.33464 9.08454 8.08083 9.83073 9.0013 9.83073C9.92178 9.83073 10.668 9.08454 10.668 8.16406C10.668 7.24359 9.92178 6.4974 9.0013 6.4974Z" fill="#434343"/>
</g>
<defs>
<clipPath id="clip0_5268_430421">
<rect width="16.6667" height="16.6667" fill="white" transform="translate(0.667969 0.664062)"/>
</clipPath>
</defs>
</svg>
