<svg width="18" height="18" viewBox="0 0 18 18" fill="none" xmlns="http://www.w3.org/2000/svg">
<g clip-path="url(#clip0_5268_430405)">
<path fill-rule="evenodd" clip-rule="evenodd" d="M5.66797 0.664062C6.12821 0.664062 6.5013 1.03716 6.5013 1.4974V2.33073L11.5013 2.33073V1.4974C11.5013 1.03716 11.8744 0.664062 12.3346 0.664062C12.7949 0.664062 13.168 1.03716 13.168 1.4974V2.33073H14.0013C15.8423 2.33073 17.3346 3.82311 17.3346 5.66406V15.6641C17.3346 16.5845 16.5884 17.3307 15.668 17.3307H2.33463C1.41416 17.3307 0.667969 16.5845 0.667969 15.6641V5.66406C0.667969 3.82311 2.16035 2.33073 4.0013 2.33073H4.83464V1.4974C4.83464 1.03716 5.20773 0.664062 5.66797 0.664062ZM11.5013 3.9974V4.83073C11.5013 5.29097 11.8744 5.66406 12.3346 5.66406C12.7949 5.66406 13.168 5.29097 13.168 4.83073V3.9974H14.0013C14.9218 3.9974 15.668 4.74359 15.668 5.66406V7.33073L2.33464 7.33073L2.33464 5.66406C2.33464 4.74359 3.08083 3.9974 4.0013 3.9974H4.83464V4.83073C4.83464 5.29097 5.20773 5.66406 5.66797 5.66406C6.12821 5.66406 6.5013 5.29097 6.5013 4.83073V3.9974L11.5013 3.9974ZM2.33464 8.9974L15.668 8.99739V15.6641H2.33463L2.33464 8.9974Z" fill="#434343"/>
</g>
<defs>
<clipPath id="clip0_5268_430405">
<rect width="16.6667" height="16.6667" fill="white" transform="translate(0.667969 0.664062)"/>
</clipPath>
</defs>
</svg>
