<svg width="20" height="20" viewBox="0 0 20 20" fill="none" xmlns="http://www.w3.org/2000/svg">
<g clip-path="url(#clip0_5268_430455)">
<path fill-rule="evenodd" clip-rule="evenodd" d="M15.2778 1.66406C15.4988 1.66406 15.7108 1.75186 15.867 1.90814L18.0893 4.13036C18.4147 4.4558 18.4147 4.98344 18.0893 5.30887L16.4271 6.97103C16.4256 6.97254 16.4241 6.97404 16.4226 6.97554C16.4211 6.97704 16.4196 6.97853 16.4181 6.98002L11.4226 11.9755C11.3311 12.067 11.2196 12.1359 11.0969 12.1769L7.76352 13.288C7.46408 13.3878 7.13394 13.3098 6.91075 13.0867C6.68755 12.8635 6.60962 12.5333 6.70943 12.2339L7.82054 8.90054C7.86145 8.77781 7.93038 8.66629 8.02186 8.57481L14.6885 1.90814C14.8448 1.75186 15.0568 1.66406 15.2778 1.66406ZM15.8334 5.20776L16.3215 4.71962L15.2778 3.67591L14.7896 4.16405L15.8334 5.20776ZM13.6111 5.34256L14.6548 6.38627L10.3832 10.6579L8.81762 11.1798L9.33947 9.61421L13.6111 5.34256Z" fill="#434343"/>
<path d="M2.5 4.16406C2.5 3.24359 3.24619 2.4974 4.16667 2.4974H10C10.4602 2.4974 10.8333 2.87049 10.8333 3.33073C10.8333 3.79097 10.4602 4.16406 10 4.16406H4.16667V15.8307H15.8333V11.2474C15.8333 10.7872 16.2064 10.4141 16.6667 10.4141C17.1269 10.4141 17.5 10.7872 17.5 11.2474V15.8307C17.5 16.7512 16.7538 17.4974 15.8333 17.4974H4.16667C3.24619 17.4974 2.5 16.7512 2.5 15.8307V4.16406Z" fill="#434343"/>
</g>
<defs>
<clipPath id="clip0_5268_430455">
<rect width="16.6667" height="16.6667" fill="white" transform="translate(1.66797 1.66406)"/>
</clipPath>
</defs>
</svg>
