<svg width="18" height="18" viewBox="0 0 18 18" fill="none" xmlns="http://www.w3.org/2000/svg">
<g clip-path="url(#clip0_5294_284248)">
<path fill-rule="evenodd" clip-rule="evenodd" d="M5.66683 2.33464C5.66683 1.41416 6.41302 0.667969 7.3335 0.667969H10.6667C11.5872 0.667969 12.3334 1.41416 12.3334 2.33464H14C14.9205 2.33464 15.6667 3.08083 15.6667 4.0013V15.668C15.6667 16.5884 14.9205 17.3346 14 17.3346H4.00016C3.07969 17.3346 2.3335 16.5884 2.3335 15.668V4.0013C2.3335 3.08083 3.07969 2.33464 4.00016 2.33464H5.66683ZM5.66683 4.0013H4.00016V15.668H14V4.0013H12.3334C12.3334 4.92178 11.5872 5.66797 10.6667 5.66797H7.3335C6.41302 5.66797 5.66683 4.92178 5.66683 4.0013ZM10.6667 2.33464H7.3335V4.0013H10.6667V2.33464ZM5.66683 8.16797C5.66683 7.70773 6.03993 7.33464 6.50016 7.33464H11.5C11.9603 7.33464 12.3334 7.70773 12.3334 8.16797C12.3334 8.62821 11.9603 9.0013 11.5 9.0013H6.50016C6.03993 9.0013 5.66683 8.62821 5.66683 8.16797ZM5.66683 12.3346C5.66683 11.8744 6.03993 11.5013 6.50016 11.5013H11.5C11.9603 11.5013 12.3334 11.8744 12.3334 12.3346C12.3334 12.7949 11.9603 13.168 11.5 13.168H6.50016C6.03993 13.168 5.66683 12.7949 5.66683 12.3346Z" fill="#434343"/>
</g>
<defs>
<clipPath id="clip0_5294_284248">
<rect width="16.6667" height="16.6667" fill="white" transform="translate(0.666687 0.667969)"/>
</clipPath>
</defs>
</svg>
