<svg width="17" height="18" viewBox="0 0 17 18" fill="none" xmlns="http://www.w3.org/2000/svg">
<path d="M8.50033 8.16602C8.96056 8.16602 9.33366 8.53911 9.33366 8.99935L9.33366 12.3327C9.33366 12.7929 8.96056 13.166 8.50033 13.166C8.04009 13.166 7.66699 12.7929 7.66699 12.3327L7.66699 8.99935C7.66699 8.53911 8.04009 8.16602 8.50033 8.16602Z" fill="currentColor"/>
<path d="M8.50033 6.91602C9.07562 6.91602 9.54199 6.44965 9.54199 5.87435C9.54199 5.29905 9.07562 4.83268 8.50033 4.83268C7.92503 4.83268 7.45866 5.29905 7.45866 5.87435C7.45866 6.44965 7.92503 6.91602 8.50033 6.91602Z" fill="currentColor"/>
<path fill-rule="evenodd" clip-rule="evenodd" d="M0.166992 8.99935C0.166992 4.39698 3.89795 0.666016 8.50033 0.666016C13.1027 0.666016 16.8337 4.39698 16.8337 8.99935C16.8337 13.6017 13.1027 17.3327 8.50033 17.3327C3.89795 17.3327 0.166992 13.6017 0.166992 8.99935ZM8.50033 2.33268C4.81843 2.33268 1.83366 5.31745 1.83366 8.99935C1.83366 12.6812 4.81843 15.666 8.50033 15.666C12.1822 15.666 15.167 12.6812 15.167 8.99935C15.167 5.31745 12.1822 2.33268 8.50033 2.33268Z" fill="currentColor"/>
</svg>
