<svg width="16" height="16" viewBox="0 0 21 8" fill="none" xmlns="http://www.w3.org/2000/svg">
<path fill-rule="evenodd" clip-rule="evenodd" d="M1.15153 4.54997C0.847793 4.24623 0.847793 3.75377 1.15153 3.45003L3.90139 0.700168C4.20514 0.396427 4.6976 0.396427 5.00134 0.700168C5.30508 1.00391 5.30508 1.49637 5.00134 1.80011L3.57923 3.22222L8.30117 3.22222C8.73073 3.22222 9.07895 3.57045 9.07895 4C9.07895 4.42956 8.73073 4.77778 8.30117 4.77778L3.57923 4.77778L5.00134 6.19989C5.30508 6.50363 5.30508 6.99609 5.00134 7.29983C4.6976 7.60357 4.20514 7.60357 3.90139 7.29983L1.15153 4.54997ZM11.9232 4C11.9232 3.57045 12.2714 3.22222 12.7009 3.22222L17.4229 3.22222L16.0008 1.80011C15.697 1.49637 15.697 1.00391 16.0008 0.700169C16.3045 0.396428 16.797 0.396428 17.1007 0.70017L19.8506 3.45003C20.1543 3.75377 20.1543 4.24623 19.8506 4.54997L17.1007 7.29983C16.797 7.60357 16.3045 7.60357 16.0008 7.29983C15.697 6.99609 15.697 6.50363 16.0008 6.19989L17.4229 4.77778L12.7009 4.77778C12.2714 4.77778 11.9232 4.42956 11.9232 4Z" fill="#595959"/>
</svg>
