<svg width="16" height="12" viewBox="0 0 16 12" fill="none" xmlns="http://www.w3.org/2000/svg">
<path fill-rule="evenodd" clip-rule="evenodd" d="M0.5 0.999349C0.5 0.539112 0.873096 0.166016 1.33333 0.166016H14.6667C15.1269 0.166016 15.5 0.539112 15.5 0.999349C15.5 1.45959 15.1269 1.83268 14.6667 1.83268H1.33333C0.873096 1.83268 0.5 1.45959 0.5 0.999349Z" fill="#597EF7"/>
<path fill-rule="evenodd" clip-rule="evenodd" d="M0.5 5.99935C0.5 5.53911 0.873096 5.16602 1.33333 5.16602H14.6667C15.1269 5.16602 15.5 5.53911 15.5 5.99935C15.5 6.45959 15.1269 6.83268 14.6667 6.83268H1.33333C0.873096 6.83268 0.5 6.45959 0.5 5.99935Z" fill="#597EF7"/>
<path fill-rule="evenodd" clip-rule="evenodd" d="M0.5 10.9994C0.5 10.5391 0.873096 10.166 1.33333 10.166H14.6667C15.1269 10.166 15.5 10.5391 15.5 10.9994C15.5 11.4596 15.1269 11.8327 14.6667 11.8327H1.33333C0.873096 11.8327 0.5 11.4596 0.5 10.9994Z" fill="#597EF7"/>
</svg>
