<svg width="18" height="18" viewBox="0 0 18 18" fill="none" xmlns="http://www.w3.org/2000/svg">
<path d="M4.0013 9.0013C4.0013 9.46154 4.3744 9.83464 4.83464 9.83464L14.4895 9.83464L10.912 13.4121C10.5866 13.7375 10.5866 14.2651 10.912 14.5906C11.2375 14.916 11.7651 14.916 12.0906 14.5906L17.0895 9.59158C17.0929 9.58821 17.0963 9.58481 17.0996 9.58138C17.1744 9.50428 17.2313 9.4163 17.2704 9.32263C17.3118 9.22375 17.3346 9.1152 17.3346 9.0013C17.3346 8.77395 17.2436 8.56786 17.096 8.41751C17.094 8.41549 17.092 8.41347 17.09 8.41147L12.0906 3.41205C11.7651 3.08661 11.2375 3.08661 10.912 3.41205C10.5866 3.73748 10.5866 4.26512 10.912 4.59056L14.4895 8.16797L4.83464 8.16797C4.3744 8.16797 4.0013 8.54107 4.0013 9.0013Z" fill="currentColor"/>
<path d="M4.83464 16.5013C4.83464 16.0411 4.46154 15.668 4.0013 15.668L2.33464 15.668L2.33464 2.33464L4.0013 2.33464C4.46154 2.33464 4.83464 1.96154 4.83464 1.5013C4.83464 1.04107 4.46154 0.667969 4.0013 0.667969L1.5013 0.667969C1.04107 0.667969 0.667969 1.04107 0.667969 1.5013L0.667969 16.5013C0.667969 16.9615 1.04107 17.3346 1.5013 17.3346L4.0013 17.3346C4.46154 17.3346 4.83464 16.9615 4.83464 16.5013Z" fill="currentColor"/>
</svg>
