<svg width="15" height="18" viewBox="0 0 15 18" fill="none" xmlns="http://www.w3.org/2000/svg">
<path fill-rule="evenodd" clip-rule="evenodd" d="M5.83333 1.49935C5.83333 1.22283 5.69617 0.964322 5.46719 0.809297C5.23821 0.654272 4.94725 0.622925 4.69051 0.725622L0.523841 2.39229C0.207459 2.51884 0 2.82527 0 3.16602V16.4994C0 16.9596 0.373096 17.3327 0.833333 17.3327H5C5.46024 17.3327 5.83333 16.9596 5.83333 16.4994V3.99935H11.6667V5.66602C11.6667 6.12626 12.0398 6.49935 12.5 6.49935C12.9602 6.49935 13.3333 6.12626 13.3333 5.66602V3.16602C13.3333 2.70578 12.9602 2.33269 12.5 2.33269H5.83333V1.49935ZM4.16667 2.73021L1.66667 3.73021V15.666H4.16667V2.73021Z" fill="#1F1F1F"/>
<path fill-rule="evenodd" clip-rule="evenodd" d="M10.8333 13.9994C9.45262 13.9994 8.33333 15.1186 8.33333 16.4994C8.33333 16.9596 7.96024 17.3327 7.5 17.3327C7.03976 17.3327 6.66667 16.9596 6.66667 16.4994C6.66667 15.0626 7.39383 13.7958 8.50019 13.0467C7.88296 12.4417 7.5 11.5986 7.5 10.666C7.5 8.82507 8.99238 7.33269 10.8333 7.33269C12.6743 7.33269 14.1667 8.82507 14.1667 10.666C14.1667 11.5986 13.7837 12.4417 13.1665 13.0467C14.2728 13.7958 15 15.0626 15 16.4994C15 16.9596 14.6269 17.3327 14.1667 17.3327C13.7064 17.3327 13.3333 16.9596 13.3333 16.4994C13.3333 15.1186 12.214 13.9994 10.8333 13.9994ZM10.8333 12.3327C11.7538 12.3327 12.5 11.5865 12.5 10.666C12.5 9.74555 11.7538 8.99935 10.8333 8.99935C9.91286 8.99935 9.16667 9.74555 9.16667 10.666C9.16667 11.5865 9.91286 12.3327 10.8333 12.3327Z" fill="#1F1F1F"/>
</svg>
