<svg width="15" height="18" viewBox="0 0 15 18" fill="none" xmlns="http://www.w3.org/2000/svg">
<path d="M8.33398 10.666C8.33398 10.2058 7.96089 9.83268 7.50065 9.83268C7.04041 9.83268 6.66732 10.2058 6.66732 10.666V12.3327C6.66732 12.7929 7.04041 13.166 7.50065 13.166C7.96089 13.166 8.33398 12.7929 8.33398 12.3327V10.666Z" fill="#434343"/>
<path fill-rule="evenodd" clip-rule="evenodd" d="M3.33398 4.83268V5.66602H2.50065C1.58018 5.66602 0.833984 6.41221 0.833984 7.33268V15.666C0.833984 16.5865 1.58018 17.3327 2.50065 17.3327H12.5007C13.4211 17.3327 14.1673 16.5865 14.1673 15.666V7.33268C14.1673 6.41221 13.4211 5.66602 12.5007 5.66602H11.6673V4.83268C11.6673 2.5315 9.80184 0.666016 7.50065 0.666016C5.19946 0.666016 3.33398 2.5315 3.33398 4.83268ZM7.50065 2.33268C6.11994 2.33268 5.00065 3.45197 5.00065 4.83268V5.66602H10.0007V4.83268C10.0007 3.45197 8.88136 2.33268 7.50065 2.33268ZM2.50065 15.666V7.33268H12.5007V15.666H2.50065Z" fill="#434343"/>
</svg>
