<svg width="17" height="17" viewBox="0 0 17 17" fill="none" xmlns="http://www.w3.org/2000/svg">
<path fill-rule="evenodd" clip-rule="evenodd" d="M7.92194 0.910093C8.24738 1.23553 8.24738 1.76317 7.92194 2.0886L7.67786 2.33268L9.4495 4.10432L14.2629 5.70878C14.3856 5.74969 14.4971 5.81861 14.5886 5.91009L16.2553 7.57676C16.5807 7.9022 16.5807 8.42984 16.2553 8.75527L13.0945 11.916L16.2553 15.0768C16.5807 15.4022 16.5807 15.9298 16.2553 16.2553C15.9298 16.5807 15.4022 16.5807 15.0768 16.2553L11.916 13.0945L8.75527 16.2553C8.42984 16.5807 7.9022 16.5807 7.57676 16.2553L5.91009 14.5886C5.81861 14.4971 5.74969 14.3856 5.70878 14.2629L4.10432 9.4495L2.33268 7.67786L2.0886 7.92194C1.76317 8.24738 1.23553 8.24738 0.910093 7.92194C0.584656 7.5965 0.584656 7.06886 0.910093 6.74343L6.74343 0.910093C7.06886 0.584656 7.5965 0.584656 7.92194 0.910093ZM3.51119 6.49935L6.49935 3.51119L8.41009 5.42194C8.50157 5.51342 8.61309 5.58234 8.73583 5.62325L13.5492 7.22771L14.4875 8.16602L8.16602 14.4875L7.22771 13.5492L5.62325 8.73583C5.58234 8.61309 5.51342 8.50157 5.42194 8.41009L3.51119 6.49935Z" fill="currentColor"/>
</svg>
