<svg width="10" height="10" viewBox="0 0 14 14" fill="none" xmlns="http://www.w3.org/2000/svg">
<path d="M6.13775 0.529247C6.3981 0.789596 6.3981 1.21171 6.13775 1.47206L5.80441 1.80539L7.19781 3.19879C7.28616 3.28714 7.39756 3.34888 7.51931 3.37698L11.48 4.29099C11.6018 4.31909 11.7132 4.38083 11.8015 4.46918L13.1949 5.86258C13.4553 6.12293 13.4553 6.54504 13.1949 6.80539L10.4711 9.52925L12.8044 11.8626C13.0648 12.1229 13.0648 12.545 12.8044 12.8054C12.5441 13.0657 12.122 13.0657 11.8616 12.8054L9.52827 10.4721L6.80441 13.1959C6.54406 13.4563 6.12195 13.4563 5.8616 13.1959L4.4682 11.8025C4.37985 11.7142 4.31811 11.6028 4.29002 11.481L3.376 7.52029C3.3479 7.39854 3.28616 7.28714 3.19781 7.19879L1.80441 5.80539L1.47108 6.13872C1.21073 6.39907 0.788619 6.39907 0.52827 6.13872C0.26792 5.87837 0.26792 5.45626 0.52827 5.19591L5.19494 0.529247C5.45529 0.268897 5.8774 0.268897 6.13775 0.529247Z" fill="currentColor"/>
</svg>
