<svg width="20" height="20" viewBox="0 0 20 20" fill="none" xmlns="http://www.w3.org/2000/svg">
<g clip-path="url(#clip0_3346_180879)">
<path fill-rule="evenodd" clip-rule="evenodd" d="M20 10.0001C20 15.523 15.5228 20.0001 10 20.0001C4.47715 20.0001 0 15.523 0 10.0001C0 4.47727 4.47715 0.00012207 10 0.00012207C15.5228 0.00012207 20 4.47727 20 10.0001ZM10 4.75012C10.6904 4.75012 11.25 5.30977 11.25 6.00012V8.75012H14C14.6904 8.75012 15.25 9.30977 15.25 10.0001C15.25 10.6905 14.6904 11.2501 14 11.2501H11.25V14.0001C11.25 14.6905 10.6904 15.2501 10 15.2501C9.30966 15.2501 8.75001 14.6905 8.75001 14.0001V11.2501H6.00005C5.30969 11.2501 4.75005 10.6905 4.75005 10.0001C4.75005 9.30977 5.30969 8.75012 6.00005 8.75012H8.75001V6.00012C8.75001 5.30977 9.30966 4.75012 10 4.75012Z" fill="#00AB56"/>
</g>
<defs>
<clipPath id="clip0_3346_180879">
<rect width="20" height="20" fill="white"/>
</clipPath>
</defs>
</svg>
