<svg width="16" height="14" viewBox="0 0 16 14" fill="none" xmlns="http://www.w3.org/2000/svg">
<path d="M10.5 3.75H2.88438L5.12625 1.50875L4.25 0.625L0.5 4.375L4.25 8.125L5.12625 7.24062L2.88625 5H10.5C11.4946 5 12.4484 5.39509 13.1517 6.09835C13.8549 6.80161 14.25 7.75544 14.25 8.75C14.25 9.74456 13.8549 10.6984 13.1517 11.4017C12.4484 12.1049 11.4946 12.5 10.5 12.5H5.5V13.75H10.5C11.8261 13.75 13.0979 13.2232 14.0355 12.2855C14.9732 11.3479 15.5 10.0761 15.5 8.75C15.5 7.42392 14.9732 6.15215 14.0355 5.21447C13.0979 4.27678 11.8261 3.75 10.5 3.75Z" fill="white"/>
</svg>
