<svg width="16" height="16" viewBox="0 0 9 20" fill="none" xmlns="http://www.w3.org/2000/svg">
<path fill-rule="evenodd" clip-rule="evenodd" d="M3.94612 0.649581C4.24986 0.34584 4.74232 0.34584 5.04607 0.649581L7.79593 3.39944C8.09967 3.70318 8.09967 4.19564 7.79593 4.49939C7.49219 4.80313 6.99972 4.80313 6.69598 4.49938L5.27387 3.07727L5.27387 7.79922C5.27387 8.22877 4.92565 8.57699 4.49609 8.57699C4.06654 8.577 3.71832 8.22877 3.71832 7.79922L3.71832 3.07728L2.29621 4.49939C1.99247 4.80313 1.5 4.80313 1.19626 4.49939C0.892521 4.19564 0.892521 3.70318 1.19626 3.39944L3.94612 0.649581ZM4.49609 11.4212C4.92565 11.4212 5.27387 11.7694 5.27387 12.199L5.27387 16.9209L6.69598 15.4988C6.99972 15.1951 7.49219 15.1951 7.79593 15.4988C8.09967 15.8026 8.09967 16.295 7.79593 16.5988L5.04607 19.3486C4.74233 19.6524 4.24986 19.6524 3.94612 19.3486L1.19626 16.5988C0.892522 16.295 0.892522 15.8026 1.19626 15.4988C1.5 15.1951 1.99247 15.1951 2.29621 15.4988L3.71832 16.9209L3.71832 12.199C3.71832 11.7694 4.06654 11.4212 4.49609 11.4212Z" fill="#595959"/>
</svg>
