<svg width="18" height="18" viewBox="0 0 18 18" fill="none" xmlns="http://www.w3.org/2000/svg">
<path d="M6.31039 1.23583C6.42382 0.895541 6.74227 0.666016 7.10096 0.666016H10.8997C11.2584 0.666016 11.5768 0.895541 11.6903 1.23583L12.3337 3.16602H16.5003C16.9606 3.16602 17.3337 3.53911 17.3337 3.99935C17.3337 4.45959 16.9606 4.83268 16.5003 4.83268H1.50033C1.04009 4.83268 0.666992 4.45959 0.666992 3.99935C0.666992 3.53911 1.04009 3.16602 1.50033 3.16602H5.66699L6.31039 1.23583Z" fill="#F5222D"/>
<path fill-rule="evenodd" clip-rule="evenodd" d="M2.75033 6.08268L3.46932 15.7891C3.53379 16.6595 4.25873 17.3327 5.13143 17.3327H12.8692C13.7419 17.3327 14.4669 16.6595 14.5313 15.7891L15.2503 6.08268H2.75033ZM8.16699 8.99935C8.16699 8.53911 7.7939 8.16602 7.33366 8.16602C6.87342 8.16602 6.50033 8.53911 6.50033 8.99935V13.166C6.50033 13.6263 6.87342 13.9993 7.33366 13.9993C7.7939 13.9993 8.16699 13.6263 8.16699 13.166V8.99935ZM10.667 8.16602C11.1272 8.16602 11.5003 8.53911 11.5003 8.99935V13.166C11.5003 13.6263 11.1272 13.9993 10.667 13.9993C10.2068 13.9993 9.83366 13.6263 9.83366 13.166V8.99935C9.83366 8.53911 10.2068 8.16602 10.667 8.16602Z" fill="#F5222D"/>
</svg>
