<svg width="17" height="15" viewBox="0 0 17 15" fill="none" xmlns="http://www.w3.org/2000/svg">
<path fill-rule="evenodd" clip-rule="evenodd" d="M9.61233 7.77157C10.4642 7.00865 11.0003 5.90026 11.0003 4.66667C11.0003 2.36548 9.13485 0.5 6.83366 0.5C4.53247 0.5 2.66699 2.36548 2.66699 4.66667C2.66699 5.90026 3.20308 7.00865 4.05499 7.77157C1.76043 8.8251 0.166992 11.1431 0.166992 13.8333C0.166992 14.2936 0.540088 14.6667 1.00033 14.6667C1.46056 14.6667 1.83366 14.2936 1.83366 13.8333C1.83366 11.0719 4.07224 8.83333 6.83366 8.83333C9.59508 8.83333 11.8337 11.0719 11.8337 13.8333C11.8337 14.2936 12.2068 14.6667 12.667 14.6667C13.1272 14.6667 13.5003 14.2936 13.5003 13.8333C13.5003 11.1431 11.9069 8.8251 9.61233 7.77157ZM4.33366 4.66667C4.33366 3.28596 5.45295 2.16667 6.83366 2.16667C8.21437 2.16667 9.33366 3.28596 9.33366 4.66667C9.33366 6.04738 8.21437 7.16667 6.83366 7.16667C5.45295 7.16667 4.33366 6.04738 4.33366 4.66667Z" fill="#434343"/>
<path d="M14.3337 4.66667C14.7939 4.66667 15.167 5.03976 15.167 5.5V6.33333H16.0004C16.4606 6.33333 16.8337 6.70643 16.8337 7.16667C16.8337 7.6269 16.4606 8 16.0004 8H15.167V8.83337C15.167 9.2936 14.7939 9.6667 14.3337 9.6667C13.8734 9.6667 13.5003 9.2936 13.5003 8.83337V8H12.667C12.2068 8 11.8337 7.6269 11.8337 7.16667C11.8337 6.70643 12.2068 6.33333 12.667 6.33333H13.5003V5.5C13.5003 5.03976 13.8734 4.66667 14.3337 4.66667Z" fill="#434343"/>
</svg>
