<svg width="16" height="16" viewBox="0 0 15 16" fill="none" xmlns="http://www.w3.org/2000/svg">
<path fill-rule="evenodd" clip-rule="evenodd" d="M0 1.33333C0 0.873096 0.373096 0.5 0.833333 0.5H4.16667C4.6269 0.5 5 0.873096 5 1.33333C5 1.79357 4.6269 2.16667 4.16667 2.16667H2.84518L5.58925 4.91074C5.91469 5.23618 5.91469 5.76382 5.58925 6.08925C5.26382 6.41469 4.73618 6.41469 4.41074 6.08925L1.66667 3.34518V4.66667C1.66667 5.1269 1.29357 5.5 0.833333 5.5C0.373096 5.5 0 5.1269 0 4.66667V1.33333ZM10.8333 0.5H14.1667C14.6269 0.5 15 0.873096 15 1.33333V4.66667C15 5.1269 14.6269 5.5 14.1667 5.5C13.7064 5.5 13.3333 5.1269 13.3333 4.66667V3.34518L10.5893 6.08925C10.2638 6.41469 9.73618 6.41469 9.41074 6.08925C9.08531 5.76382 9.08531 5.23618 9.41074 4.91074L12.1548 2.16667H10.8333C10.3731 2.16667 10 1.79357 10 1.33333C10 0.873096 10.3731 0.5 10.8333 0.5ZM5.58925 9.91074C5.91469 10.2362 5.91469 10.7638 5.58925 11.0893L2.84518 13.8333H4.16667C4.6269 13.8333 5 14.2064 5 14.6667C5 15.1269 4.6269 15.5 4.16667 15.5H0.833333C0.373096 15.5 0 15.1269 0 14.6667V11.3333C0 10.8731 0.373096 10.5 0.833333 10.5C1.29357 10.5 1.66667 10.8731 1.66667 11.3333V12.6548L4.41074 9.91074C4.73618 9.58531 5.26382 9.58531 5.58925 9.91074ZM9.41074 9.91074C9.73618 9.58531 10.2638 9.58531 10.5893 9.91074L13.3333 12.6548V11.3333C13.3333 10.8731 13.7064 10.5 14.1667 10.5C14.6269 10.5 15 10.8731 15 11.3333V14.6667C15 15.1269 14.6269 15.5 14.1667 15.5H10.8333C10.3731 15.5 10 15.1269 10 14.6667C10 14.2064 10.3731 13.8333 10.8333 13.8333H12.1548L9.41074 11.0893C9.08531 10.7638 9.08531 10.2362 9.41074 9.91074Z" fill="#2F54EB"/>
</svg>
